<?xml version="1.0" standalone="no"?>
<!DOCTYPE svg PUBLIC "-//W3C//DTD SVG 1.1//EN" "http://www.w3.org/Graphics/SVG/1.1/DTD/svg11.dtd" >
<svg xmlns="http://www.w3.org/2000/svg" xmlns:xlink="http://www.w3.org/1999/xlink" version="1.1">
<metadata>
Created by FontForge 20150715 at Thu Jan 28 22:50:01 2016
 By Jimmy Wärting
Generated in 2012 by FontLab Studio. Copyright info pending.
</metadata>
<defs>
<font id="Socialico" horiz-adv-x="796" >
  <font-face 
    font-family="Socialico"
    font-weight="400"
    font-stretch="normal"
    units-per-em="1000"
    panose-1="0 0 0 0 0 0 0 0 0 0"
    ascent="750"
    descent="-250"
    x-height="699"
    cap-height="677"
    bbox="37 -4 875 703"
    underline-thickness="50"
    underline-position="-100"
    unicode-range="U+0020-00F6"
  />
<missing-glyph 
 />
    <glyph glyph-name=".notdef" 
 />
    <glyph glyph-name=".null" horiz-adv-x="0" 
 />
    <glyph glyph-name="nonmarkingreturn" 
 />
    <glyph glyph-name="space" unicode=" " 
 />
    <glyph glyph-name="space" unicode="&#xa0;" 
 />
    <glyph glyph-name="e" unicode="e" 
d="M351 307q0 -24 -16 -31q-8 -4 -25 -4h-52v65h53q17 0 24 -4q16 -7 16 -26zM536 370q11 -11 12 -28h-79q3 16 12 27q10 10 28 10q15 0 27 -9zM202 229h110q18 0 35 3q8 2 15 5t12 8q11 8 18 19q11 19 11 39q0 19 -10 36q-8 14 -28 22q13 6 18 14q12 13 12 36q0 21 -11 37
q-20 26 -64 26h-118v-245zM402 703q72 -1 135.5 -29t111 -75.5t74.5 -111t27 -135.5q0 -73 -27.5 -137t-75 -112t-111.5 -75.5t-137 -27.5t-137 27.5t-112 75.5t-75.5 112t-27.5 137q0 72 27.5 135.5t74.5 111t110.5 75.5t135.5 29h7zM446 393q-24 -26 -24 -70q0 -49 26 -71
q27 -21 62 -21q44 0 66 25q16 17 17 32h-47q-3 -8 -9 -12q-11 -8 -26 -8t-25 7q-18 11 -18 37h128q0 11 -0.5 19.5t-1.5 14.5q-3 19 -14 37q-11 16 -30 26q-19 8 -41 8q-39 0 -63 -24zM459 439h98v25h-98v-25zM336 384q-11 -6 -26 -6h-52v54h46q9 0 16 -1t13 -3
q13 -6 13 -23q0 -15 -10 -21z" />
    <glyph glyph-name="f" unicode="f" horiz-adv-x="795" 
d="M307 339h52v-158h65v158h65v65h-65v33q0 8 4 14t9 6h52v64h-52q-32 0 -55 -25t-23 -60v-32h-52v-65zM398 0q-73 0 -137 27.5t-111.5 75t-75 111.5t-27.5 137t27.5 137t75 112t111.5 75.5t137 27.5t137 -27.5t111.5 -75.5t75 -112t27.5 -137t-27.5 -137t-75 -111.5
t-111.5 -75t-137 -27.5z" />
    <glyph glyph-name="g" unicode="g" horiz-adv-x="795" 
d="M396 702q72 1 135.5 -26.5t111.5 -75t76 -112t29 -137.5q0 -73 -27.5 -137t-75.5 -112t-112 -75.5t-137 -27.5t-137 27.5t-111.5 75.5t-75 112t-27.5 137t27.5 136.5t75 111t111.5 75t137 28.5zM354 348q0 9 8 15.5t17 15t17 20.5t8 32q0 24 -4.5 39t-23.5 24q0 3 7 4
t15 2.5t15 3.5t7 8h-97q-28 -2 -50 -12q-19 -8 -34 -25.5t-15 -49.5t13 -47.5t30 -21.5q18 -7 43 -5v-21q0 -7 6 -8.5t7 -14.5q-2 0 -21 -0.5t-41 -7.5t-40 -22t-18 -43q0 -29 15.5 -44t34.5 -21q22 -8 51 -7q32 0 58 9q22 8 40 26t18 54q0 21 -10.5 35.5t-22.5 25.5
t-22.5 19t-10.5 17zM542 443v69h-20v-69h-68v-20h68v-68h20v68h68v20h-68zM270 420q-8 26 0 47t26 26q19 5 36 -9t25 -40q7 -26 -1 -47t-26 -26t-35.5 9.5t-24.5 39.5zM320 186q-31 -2 -53 12t-24 36q-2 23 18.5 40t50.5 19q31 2 53 -12t24 -37q2 -22 -18.5 -39t-50.5 -19z
" />
    <glyph glyph-name="h" unicode="h" 
d="M365 286q4 -2 12.5 -5.5t18.5 -4.5t20.5 1.5t18.5 11.5t6.5 16.5t-9 12.5t-18.5 8t-21 5q-15 2 -30.5 7.5t-28 13.5t-20 20t-5.5 27q2 32 22.5 48t45.5 18q32 3 53 -4t38 -21q9 -8 12 -16t1 -14.5t-7 -11t-11 -5.5t-12 4.5t-14.5 12.5t-18.5 13t-23 6q-14 0 -24.5 -6
t-14.5 -14.5t1 -16.5t22 -12q16 -4 33 -7.5t31.5 -9t26.5 -15t18 -24.5q7 -15 3 -30.5t-15.5 -27.5t-28 -19.5t-35.5 -8.5q-37 -2 -57 5.5t-36 22.5q-17 17 -13 32t19 16q7 0 13 -3.5t10.5 -8t8.5 -9.5t8 -7zM323 517q-19 0 -36 -7t-29.5 -19.5t-19.5 -29.5t-7 -36
q0 -29 15 -50q-2 -6 -2 -12v-12q0 -32 12 -60t33 -49t49 -33t60 -12q14 0 28 3q22 -14 49 -14q19 0 36 7t29.5 19.5t19.5 29.5t7 36q0 28 -16 52q1 5 1 10.5v10.5q0 31 -12 59t-33 49t-49 33t-60 12h-12.5t-12.5 -2q-21 15 -50 15zM399 0q-73 0 -137 27.5t-112 75
t-75.5 111.5t-27.5 137t27.5 137t75.5 111.5t112 75t137 27.5t137 -27.5t111.5 -75t75 -111.5t27.5 -137t-27.5 -137t-75 -111.5t-111.5 -75t-137 -27.5z" />
    <glyph glyph-name="i" unicode="i" 
d="M299 551q-16 0 -27 -11.5t-11 -27.5t11 -27t27 -11t27 11t11 27t-11 27.5t-27 11.5zM360 236h62v138q7 7 16 11q7 3 16 4t18 -4q4 -2 7.5 -7.5t3.5 -10.5v-131h61v131q0 21 -11.5 41t-30.5 31q-17 9 -39.5 10t-40.5 -8v10h-62v-215zM330 451h-62v-215h62v215zM398 0
q-73 0 -137 27.5t-111.5 75.5t-75 112t-27.5 137t27.5 137t75 111.5t111.5 75t137 27.5t137 -27.5t112 -75t75.5 -111.5t27.5 -137t-27.5 -137t-75.5 -112t-112 -75.5t-137 -27.5z" />
    <glyph glyph-name="j" unicode="j" horiz-adv-x="795" 
d="M284 420q-26 -11 -43.5 -25t-27.5 -29t-14.5 -31.5t-5.5 -31.5q-2 -36 14 -75l211 61l-58 117q39 11 73.5 7.5t60.5 -11.5q31 -11 57 -27l-72 -19l-20 38q-15 3 -31.5 3.5t-34.5 -2.5l49 -99l211 60q-26 33 -67 55q-36 19 -93.5 30t-143.5 -3q-2 -1 -4 -1l-22 45l-66 -8z
M264 298q-5 13 -3 27q2 12 10.5 27t31.5 29l31 -64zM402 702q72 -1 135 -29t110.5 -75.5t74.5 -111t27 -135.5q0 -73 -27.5 -137t-75 -112t-111.5 -75.5t-137 -27.5t-137 27.5t-111.5 75.5t-75 112t-27.5 137q0 72 27 135.5t74.5 111t110.5 75.5t135 29h8z" />
    <glyph glyph-name="k" unicode="k" 
d="M215 319q1 -27 17 -50.5t42.5 -41.5t61.5 -28t75 -10t76 10.5t62.5 28.5t42 42.5t15.5 52.5q0 27 -15.5 51.5t-42 42.5t-62.5 28.5t-76 10.5q-35 0 -67 -8t-58 -22v101h-71v-208zM411 381q-35 0 -58.5 -17t-23.5 -41q0 -25 23.5 -42t58.5 -17q34 0 58 17t24 42
q0 24 -24 41t-58 17zM411 234q-26 0 -48.5 7t-39.5 19t-27 28t-10 35q0 18 10 34.5t27 28.5t39.5 19t48.5 7t48.5 -7t39.5 -19t27 -28.5t10 -34.5q0 -19 -10 -35t-27 -28t-39.5 -19t-48.5 -7zM402 702q72 -1 135.5 -28.5t111 -75t74.5 -111.5t27 -136q0 -73 -27.5 -137
t-75.5 -111.5t-112 -75t-137 -27.5t-137 27.5t-111.5 75t-75 111.5t-27.5 137q0 72 27 136t74.5 111.5t111 75t135.5 28.5h7z" />
    <glyph glyph-name="l" unicode="l" 
d="M399 702q73 0 137 -27.5t111.5 -75t75 -111.5t27.5 -137t-27.5 -137t-75 -111.5t-111.5 -75t-137 -27.5t-137 27.5t-112 75t-75.5 111.5t-27.5 137t27.5 137t75.5 111.5t112 75t137 27.5zM589 452q-10 -4 -20 -6.5t-21 -4.5q11 7 19 17t13 22q-11 -5 -22.5 -10t-24.5 -7
q-9 11 -22 17t-29 6q-29 0 -50 -21t-21 -51q0 -6 2 -16q-45 2 -82.5 22t-64.5 53q-9 -17 -9 -36q0 -40 31 -59q-18 0 -32 8v-1q0 -26 16 -45.5t40 -24.5q-4 -1 -8.5 -1.5t-10.5 -0.5q-4 0 -12 2q6 -21 24 -35t42 -15q-38 -30 -88 -30h-17q23 -15 51 -23.5t58 -8.5
q49 0 87 18.5t63.5 47.5t38.5 65t13 72v9q11 8 20 17.5t16 19.5z" />
    <glyph glyph-name="m" unicode="m" 
d="M543 319q0 30 -21.5 51t-51.5 21q-31 0 -51 -20q-5 17 -19 28.5t-33 11.5q-25 0 -42 -20q-3 13 -12.5 21t-22.5 8q-16 0 -26.5 -11t-10.5 -27v-66h58v-57h87v-76h145v136zM288 497q-13 0 -22 -9t-9 -22q0 -14 9 -23t22 -9t22 9t9 23q0 13 -9 22t-22 9zM367 507
q-17 0 -29 -12t-12 -29t12 -29t29 -12t29 12t12 29t-12 29t-29 12zM470 519q-22 0 -37.5 -15.5t-15.5 -37.5q0 -23 15.5 -38.5t37.5 -15.5q23 0 38 15.5t15 38.5q0 22 -15 37.5t-38 15.5zM398 702q73 0 137 -27.5t112 -75t75.5 -111.5t27.5 -137t-27.5 -137t-75.5 -111.5
t-112 -75t-137 -27.5t-137 27.5t-111.5 75t-75 111.5t-27.5 137t27.5 137t75 111.5t111.5 75t137 27.5z" />
    <glyph glyph-name="n" unicode="n" 
d="M289 436q-35 0 -60 -25t-25 -60t25 -60t60 -25t60 25t25 60t-25 60t-60 25zM508 436q-17 0 -32.5 -6.5t-27 -18t-18 -27t-6.5 -33.5t6.5 -33.5t18 -27t27 -18t32.5 -6.5q35 0 60 25t25 60t-25 60t-60 25zM399 0q-73 0 -137 27.5t-112 75t-75.5 111.5t-27.5 137t27.5 137
t75.5 111.5t112 75t137 27.5t137 -27.5t111.5 -75t75 -111.5t27.5 -137t-27.5 -137t-75 -111.5t-111.5 -75t-137 -27.5z" />
    <glyph glyph-name="o" unicode="o" 
d="M398 702q72 1 135.5 -26.5t111 -75t75.5 -112t29 -137.5t-26.5 -137t-75.5 -112t-112 -75.5t-137 -27.5t-137 27.5t-112 75.5t-75.5 112t-27.5 137t27.5 136.5t75.5 111t112 75t137 28.5zM255 542q-20 0 -34.5 -14.5t-14.5 -34.5v-285q0 -20 14.5 -34.5t34.5 -14.5h285
q20 0 34.5 14.5t14.5 34.5v285q0 20 -14.5 34.5t-34.5 14.5h-285zM529 500q7 0 12 -5t5 -12v-42q0 -7 -5 -12t-12 -5h-44q-7 0 -12 5t-5 12v42q0 7 5 12t12 5h44zM546 218q0 -6 -4.5 -10.5t-10.5 -4.5h-267q-7 0 -11.5 4.5t-4.5 10.5v162h36q-5 -13 -5 -33q0 -24 9.5 -45
t25.5 -36.5t37.5 -24.5t46.5 -9t46.5 9t37.5 24.5t25.5 36.5t9.5 45q0 20 -5 33h34v-162zM398 426q32 0 54.5 -21.5t22.5 -53.5q0 -31 -22.5 -52.5t-54.5 -21.5t-54.5 21.5t-22.5 52.5q0 32 22.5 53.5t54.5 21.5z" />
    <glyph glyph-name="p" unicode="p" horiz-adv-x="795" 
d="M498 280q27 23 39 63.5t8 77.5q-2 21 -12.5 39.5t-26 33.5t-36 24.5t-42.5 12.5q-35 4 -67 -4t-56.5 -26.5t-39.5 -45.5t-15 -61q0 -32 11.5 -53t39.5 -32q10 10 10.5 18t-3.5 16.5t-9 17t-6 19.5q-3 28 10.5 54.5t37.5 43t54 19.5t60 -15q21 -12 30 -41.5t6 -60.5
t-17.5 -56.5t-39.5 -30.5q-11 -2 -21.5 0.5t-15.5 7.5q-12 12 -10 27t8 32t11 34.5t-2 34.5q-6 14 -16.5 16.5t-21.5 -2.5t-19.5 -16t-10.5 -24q-2 -14 2 -26.5t4 -24.5q0 -14 -3.5 -30t-8.5 -32.5t-10 -32.5t-7 -30q-2 -11 -3 -30t2 -30h-1h25q13 22 21.5 52t15.5 59
q5 3 7 -2.5t5 -7.5q12 -9 27.5 -11.5t31.5 0t30.5 9t23.5 14.5zM398 701q73 0 137 -27.5t111.5 -75t75 -111.5t27.5 -137t-27.5 -137t-75 -112t-111.5 -75.5t-137 -27.5t-137 27.5t-111.5 75.5t-75 112t-27.5 137t27.5 137t75 111.5t111.5 75t137 27.5z" />
    <glyph glyph-name="q" unicode="q" 
d="M557 368q1 32 -10.5 60.5t-32.5 50t-49 34t-61 12.5t-62 -12.5t-51.5 -34t-36 -50t-14.5 -60.5q-1 -33 10.5 -61.5t32.5 -49.5t49 -33.5t61 -12.5q25 0 45 7q8 -13 17 -23q11 -13 22 -16t22 -2t24 7v27q-5 -1 -12 2q-6 2 -14 7.5t-16 16.5q33 21 53.5 55t22.5 76z
M405 486q17 0 31.5 -9t25 -25t16.5 -36.5t5 -44.5q-1 -26 -9 -48t-21 -38q-11 17 -23.5 22.5t-23.5 6.5q-12 1 -25 -4v-27q5 1 10 0t9.5 -3t9.5 -8q2 -3 3.5 -6.5t3.5 -6.5q-9 -4 -20 -4q-17 0 -31.5 9t-25 25t-16.5 37t-5 45t8.5 44.5t19 36.5t26.5 25t32 9zM399 702
q73 0 137 -27.5t111.5 -75t75 -111.5t27.5 -137t-27.5 -137t-75 -112t-111.5 -75.5t-137 -27.5t-137 27.5t-112 75.5t-75.5 112t-27.5 137t27.5 137t75.5 111.5t112 75t137 27.5z" />
    <glyph glyph-name="r" unicode="r" 
d="M287 274q-19 0 -32 -13t-13 -32t13 -32t32 -13t32 13t13 32t-13 32t-32 13zM402 700q72 -1 135.5 -28.5t111 -75t74.5 -111.5t27 -136q0 -73 -27.5 -137t-75 -111.5t-111.5 -75t-137 -27.5t-137 27.5t-112 75t-75.5 111.5t-27.5 137q0 72 27.5 136t74.5 111.5t110.5 75
t135.5 28.5h7zM242 343q32 0 60.5 -12t51.5 -35t34.5 -51.5t11.5 -60.5h66q0 46 -17.5 87t-48 71.5t-71.5 48t-87 17.5v-65zM242 458q57 0 106.5 -21.5t87 -59t59 -87t21.5 -106.5h65q0 70 -26.5 132t-72.5 108t-108 72.5t-132 26.5v-65z" />
    <glyph glyph-name="s" unicode="s" horiz-adv-x="798" 
d="M399 700q72 1 135.5 -26.5t111 -75.5t75.5 -112.5t29 -137.5t-26.5 -137t-75.5 -111.5t-112 -75t-137 -27.5t-137 27.5t-112 75t-75.5 111.5t-27.5 137t27.5 136.5t75.5 111.5t112 75.5t137 28.5zM429 535q-30 0 -55.5 -11t-45 -30.5t-30.5 -45.5t-11 -56q0 -49 28 -86
l-90 -90q-11 -11 -11 -26t11 -26t26 -11t26 11l97 97q25 -12 55 -12t56 11t45.5 30.5t30.5 45.5t11 56t-11 56t-30.5 45.5t-45.5 30.5t-56 11zM429 305q-36 0 -61.5 25.5t-25.5 61.5t25.5 61.5t61.5 25.5t61.5 -25.5t25.5 -61.5t-25.5 -61.5t-61.5 -25.5z" />
    <glyph glyph-name="t" unicode="t" 
d="M276 330q0 -27 9.5 -51t26 -42t39 -28.5t47.5 -10.5h85q16 0 27 11t11 27q0 17 -10.5 27.5t-26.5 10.5h-84q-19 0 -33.5 16.5t-14.5 39.5v21h131q16 0 27 11t11 27q0 17 -11 28t-27 11h-131v38q0 16 -10.5 27t-27.5 11q-16 0 -27 -11t-11 -27v-136zM399 0
q-73 0 -137 27.5t-112 75t-75.5 111.5t-27.5 137t27.5 137t75.5 112t112 75.5t137 27.5t137 -27.5t111.5 -75.5t75 -112t27.5 -137t-27.5 -137t-75 -111.5t-111.5 -75t-137 -27.5z" />
    <glyph glyph-name="u" unicode="u" 
d="M345 276q-8 0 -14 6t-6 14t6 14t14 6h117q8 0 14 -6t6 -14t-6 -14t-14 -6h-117zM240 295q0 -21 8 -40t22 -33.5t33 -22.5t40 -8h120q21 0 40 8t33.5 22.5t22.5 33.5t8 40v84v4l-3 6l-5 4q-2 1 -8.5 1.5t-13.5 0.5t-13.5 1t-9.5 4q-5 4 -5.5 11t-2.5 17q-3 19 -5 24t-5 11
q-5 12 -14.5 21.5t-20.5 17t-23 12.5t-22 6h-73q-21 0 -40 -8t-33 -22.5t-22 -33.5t-8 -40v-121zM398 -1q-73 0 -137 27.5t-111.5 75t-75 111.5t-27.5 137t27.5 137t75 111.5t111.5 75t137 27.5t137 -27.5t112 -75t75.5 -111.5t27.5 -137t-27.5 -137t-75.5 -111.5t-112 -75
t-137 -27.5zM345 395q-8 0 -14 6t-6 14t6 14t14 6h57q8 0 14 -6t6 -14t-6 -14t-14 -6h-57z" />
    <glyph glyph-name="v" unicode="v" 
d="M321 520q-19 -4 -39.5 -18t-37.5 -30q-20 -18 -39 -40l16 -21q9 7 17 11q7 4 14 5.5t12 -3.5q4 -5 13 -32t19 -59.5t19.5 -62.5t14.5 -41q4 -9 12.5 -19t19 -16.5t23 -7t26.5 8.5q13 9 40 31.5t55 55.5t51.5 74t31.5 87q5 30 -3.5 48.5t-25 26t-38 5.5t-41 -13.5t-35 -31
t-19.5 -45.5q16 10 28.5 8.5t19 -9.5t6 -22t-8.5 -30q-17 -32 -31.5 -50.5t-22.5 -18.5t-15 20t-17 57q-5 19 -8 43.5t-9 45.5t-17 34t-31 9zM398 0q-73 0 -137 27.5t-111.5 75t-75 111.5t-27.5 137t27.5 137t75 111.5t111.5 75t137 27.5t137 -27.5t112 -75t75.5 -111.5
t27.5 -137t-27.5 -137t-75.5 -111.5t-112 -75t-137 -27.5z" />
    <glyph glyph-name="w" unicode="w" 
d="M244 417q-7 -16 -11 -33t-4 -36q0 -51 26.5 -91.5t69.5 -60.5zM398 517q-45 0 -81.5 -20.5t-59.5 -55.5h11h14.5t14.5 1q8 0 16 1q7 0 7.5 -6.5t-6.5 -7.5q-3 -1 -6 -1t-6 -0.5t-7 -0.5l61 -183l37 111l-26 72l-18 2q-7 1 -6.5 7.5t7.5 6.5q8 -1 16 -1q7 -1 14.5 -1h14.5
h14.5t14.5 1q8 0 16 1q7 0 7.5 -6.5t-6.5 -7.5q-3 -1 -6 -1t-6 -0.5t-7 -0.5l61 -181l17 56q6 17 9.5 30.5t3.5 24.5q0 16 -4.5 27t-9.5 19q-7 11 -12 20t-5 20t8 20.5t20 9.5h3q-23 20 -52.5 32t-62.5 12zM547 429q1 -4 1 -8v-9q0 -13 -2.5 -28t-10.5 -33l-52 -149
q38 22 61.5 60.5t23.5 85.5q0 23 -5.5 43t-15.5 38zM398 179q31 0 57 10l-2 2l-52 142l-50 -147q21 -7 47 -7zM398 -3q-73 0 -137 27.5t-111.5 75t-75 111.5t-27.5 137t27.5 137t75 111.5t111.5 75t137 27.5t137 -27.5t112 -75t75.5 -111.5t27.5 -137t-27.5 -137
t-75.5 -111.5t-112 -75t-137 -27.5z" />
    <glyph glyph-name="x" unicode="x" horiz-adv-x="797" 
d="M398 700q72 1 135.5 -26.5t111.5 -75.5t76 -112.5t28 -137.5q1 -73 -26.5 -137t-75.5 -111.5t-112 -75t-137 -27.5t-137 27.5t-111.5 75t-75 111.5t-27.5 137t27.5 136.5t75 111.5t111.5 75.5t137 28.5zM620 373q0 19 -12 30t-32 11h-92l7 50q-1 12 -4.5 24t-7.5 23
t-10 23q-6 10 -18 13.5t-25 1.5t-22.5 -10t-9.5 -20l1 -49q-2 -6 -9.5 -18.5t-16 -26t-16 -24.5t-10.5 -14q-2 -2 -8 -6l-15 6h-113q-11 0 -18 -7.5t-6 -18.5l13 -166q1 -9 8 -15.5t16 -6.5q6 0 22.5 -0.5t34.5 -0.5t33 0.5t18 2.5q15 6 15 23q5 0 13 -6.5t22 -6.5h149
q29 0 45.5 20.5t9.5 43.5q20 20 12 45q20 21 12 46q14 14 14 33zM299 199q-9 0 -13 5.5t-4 12t4 12t13 5.5q8 0 12 -5.5t4 -12t-4 -12t-12 -5.5zM443 517q4 -8 6.5 -14.5t5.5 -14.5q3 -9 4.5 -15t0.5 -15l-12 -66l7 -9h121q4 0 6 -1q1 0 5 -2q7 -6 -1.5 -17t-22.5 -11v-14
q12 0 14 -7.5t-5 -15.5l-4 -3l-17 -5v-15l10 -2t4 -9q0 -3 -3 -9q-9 -11 -23 -11v-14q5 0 9.5 -2t4.5 -8q0 -9 -7 -14q-8 -7 -19 -7h-152q-5 2 -9.5 5.5t-9.5 5.5t-13 2v120q7 5 12.5 9t11.5 10q8 11 15.5 22.5t15.5 22.5q7 11 17.5 28.5t10.5 30.5l-1 46q4 2 10 1.5t8 -2.5
z" />
    <glyph glyph-name="y" unicode="y" 
d="M432 275q1 1 2 1.5t2 1.5q2 0 2.5 0.5t2.5 0.5q4 0 6 -3q2 -2 2 -8v-54q0 -6 -1 -7q-3 -3 -6 -3q-2 0 -2.5 0.5t-2.5 0.5q-2 1 -5 4v66zM506 276q2 2 7 2t7 -2q2 -4 2 -10v-10h-18v10q0 8 2 10zM401 377q-5 0 -8 3q-2 4 -2 7v63q0 4 3 6q1 3 7 3q4 0 7 -3q3 -2 3 -6v-63
q0 -4 -3 -7t-7 -3zM253 311h25v-122h23v122h25v20h-73v-20zM276 517l31 -95v-62h27v65l31 92h-27l-17 -63h-1l-18 63h-26zM367 389q0 -14 9 -23t25 -9t25 9q9 7 9 23v60q0 13 -9 21q-9 9 -24 9t-26 -8q-9 -9 -9 -22v-60zM451 295q-7 0 -10 -2q-6 -4 -9 -7v45h-21v-142h21v8
q3 -3 9 -7q6 -2 11 -2q9 0 14 6q5 7 5 17v58q0 12 -5 20q-6 6 -15 6zM454 379q0 -9 4 -15t13 -6q5 0 13 4q4 2 7.5 4.5t6.5 6.5v-13h24v116h-24v-88q-3 -4 -7 -6q-5 -3 -7 -3q-3 0 -5 2q-1 1 -1 6v89h-24v-97zM544 266q0 13 -8 23q-8 8 -22 8t-23 -9t-9 -22v-47q0 -14 8 -24
q9 -9 22 -9q16 0 24 8q8 10 8 25v5h-22v-5q0 -10 -2 -12t-7 -2q-6 0 -7 3q-2 2 -2 11v20h40v27zM395 294h-21v-80q-4 -4 -6 -5q-3 -2 -6 -2q-4 0 -5 1q0 1 -0.5 2.5t-0.5 3.5v80h-21v-88q0 -9 4 -14q3 -4 11 -4q6 0 12 3q7 3 12 10v-12h21v105zM399 0q-73 0 -137 27.5
t-112 75t-75.5 111.5t-27.5 137t27.5 137t75.5 112t112 75.5t137 27.5t137 -27.5t111.5 -75.5t75 -112t27.5 -137t-27.5 -137t-75 -111.5t-111.5 -75t-137 -27.5z" />
    <glyph glyph-name="z" unicode="z" horiz-adv-x="795" 
d="M351 299q-16 -34 -41 -48.5t-42 -19.5l17 -44q45 12 66 31.5t35 39.5l6 7q4 4 8 4q1 0 5 -2q40 -17 60 -38t27 -35l35 21q-15 30 -32.5 49.5t-33 31.5t-26 17t-11.5 6l-3 3q-4 4 -3 8q4 11 12 11h7q17 -3 35.5 -2t51.5 18l-14 31q-12 -5 -32 -9t-43 4l-5 2l-2 5
q-2 3 -2 11v3q-7 1 -13 3.5t-11 5.5q-23 -12 -33.5 -33.5t-13.5 -58.5q-1 -19 -4 -22zM398 518q-19 0 -32 -13t-13 -32t13 -32t32 -13t32 13t13 32t-13 32t-32 13zM398 0q-73 0 -137 27.5t-111.5 75t-75 111.5t-27.5 137t27.5 137t75 111.5t111.5 75t137 27.5t137 -27.5
t111.5 -75t75 -111.5t27.5 -137t-27.5 -137t-75 -111.5t-111.5 -75t-137 -27.5z" />
    <glyph glyph-name="zero" unicode="0" 
 />
    <glyph glyph-name="one" unicode="1" 
 />
    <glyph glyph-name="two" unicode="2" 
 />
    <glyph glyph-name="three" unicode="3" horiz-adv-x="795" 
 />
    <glyph glyph-name="four" unicode="4" horiz-adv-x="795" 
 />
    <glyph glyph-name="five" unicode="5" 
 />
    <glyph glyph-name="six" unicode="6" 
 />
    <glyph glyph-name="seven" unicode="7" 
 />
    <glyph glyph-name="eight" unicode="8" 
d="M402 489q37 0 64 -27t27 -65q0 -39 -27 -66t-64 -27q-40 0 -66.5 27t-26.5 66q0 38 26.5 65t66.5 27zM402 619q44 0 85.5 -18t71 -47.5t47 -70.5t17.5 -86q0 -80 -50.5 -141t-126.5 -77l-44 -177l-45 177q-77 16 -128 77t-51 141q0 45 18 86t48.5 70.5t70.5 47.5t87 18z
M402 231q34 0 64.5 12.5t52.5 36t35.5 53t13.5 64.5q0 34 -13.5 64.5t-35.5 53t-52.5 36t-64.5 13.5q-36 0 -65.5 -13.5t-52.5 -36t-35.5 -53t-12.5 -64.5q0 -69 48 -117.5t118 -48.5z" />
    <glyph glyph-name="nine" unicode="9" 
d="M401 446q-22 0 -37 -15t-15 -36q0 -22 15 -37t37 -15q21 0 36 15t15 37q0 21 -15 36t-36 15zM401 519q-26 0 -48.5 -10t-39.5 -26.5t-27 -39.5t-10 -48q0 -45 28.5 -79t71.5 -43l25 -99l25 99q42 9 70.5 43t28.5 79q0 25 -10 48t-26.5 39.5t-39.5 26.5t-48 10zM399 -4
q-73 0 -137 27.5t-112 75t-75.5 111.5t-27.5 137t27.5 137t75.5 112t112 75.5t137 27.5t137 -27.5t111.5 -75.5t75 -112t27.5 -137t-27.5 -137t-75 -111.5t-111.5 -75t-137 -27.5zM401 302q-39 0 -66 27t-27 66q0 19 7 36t20 29.5t29.5 20t36.5 7.5q19 0 36 -7.5t29.5 -20
t20 -29.5t7.5 -36q0 -20 -7.5 -36.5t-20 -29.5t-29.5 -20t-36 -7z" />
    <glyph glyph-name="at" unicode="@" 
 />
    <glyph glyph-name="exclam" unicode="!" 
 />
    <glyph glyph-name="question" unicode="?" 
 />
    <glyph glyph-name="period" unicode="." 
 />
    <glyph glyph-name="G" unicode="G" horiz-adv-x="690" 
d="M275 354q0 -13 15 -25t32.5 -27.5t32.5 -36.5t15 -52q0 -26 -7 -45t-19 -32.5t-27 -22.5t-31 -15q-37 -13 -83 -13q-41 0 -73 11q-28 9 -50.5 31t-22.5 63q0 27 12.5 45.5t31 30t40 17.5t40.5 9t32.5 3h15.5q0 9 -3 13.5t-6.5 7.5t-6 5t-2.5 7v30q-35 -3 -62 8
q-23 9 -42.5 31.5t-19.5 67.5q0 46 22 71.5t49 37.5q31 14 71 17h141q0 -8 -10 -11.5t-21.5 -5t-21.5 -3t-10 -5.5q27 -14 33.5 -35.5t6.5 -56.5q0 -29 -11.5 -46.5t-25 -29.5t-24.5 -21.5t-11 -22.5zM645 463h-98v-98h-30v98h-98v29h98v99h30v-99h98v-29zM153 459
q11 -37 36 -57.5t51 -13.5t38 37.5t1 68.5q-6 18 -15 32.5t-21 24t-25.5 13t-27.5 -0.5q-26 -6 -36.5 -37t-0.5 -67zM225 120q44 4 73.5 28.5t27.5 56.5q-3 32 -34.5 52t-76.5 18q-45 -3 -74 -27.5t-27 -57.5q1 -16 10.5 -29.5t24.5 -23t34.5 -14.5t41.5 -3z" />
    <glyph glyph-name="comma" unicode="," 
 />
    <glyph glyph-name="hyphen" unicode="-" 
 />
    <glyph glyph-name="parenright" unicode=")" 
 />
    <glyph glyph-name="parenleft" unicode="(" horiz-adv-x="795" 
 />
    <glyph glyph-name="ampersand" unicode="&#x26;" 
 />
    <glyph glyph-name="dollar" unicode="$" horiz-adv-x="795" 
 />
    <glyph glyph-name="slash" unicode="/" 
 />
    <glyph glyph-name="A" unicode="A" horiz-adv-x="767" 
d="M58 191q71 -41 156 -64.5t177 -23.5q57 0 117.5 11t118.5 34q4 1 9 3t9 4q10 4 15 -3.5t-4 -12.5q-7 -6 -14 -11t-15 -9q-53 -32 -118 -48.5t-125 -16.5q-98 0 -182.5 33.5t-150.5 94.5q-5 4 -2.5 8.5t9.5 0.5zM445 450q-14 0 -28 -0.5t-26 -3.5q-23 -7 -38.5 -22.5
t-15.5 -45.5q0 -23 11.5 -37.5t33.5 -14.5h9q12 4 22.5 12t17.5 22q12 17 13 35.5t1 40.5v14zM436 571q-7 9 -17.5 14t-21.5 5h-6q-19 -2 -34 -12.5t-20 -32.5q-2 -4 -4.5 -8t-7.5 -4l-71 7q-4 2 -7.5 5t-1.5 11q6 30 20.5 50t34.5 33t43.5 19t47.5 8h15q27 0 57.5 -8.5
t51.5 -27.5q13 -12 19.5 -26.5t9 -30t2.5 -32.5v-35v-114q0 -24 9 -38t20 -28q5 -11 -2 -18q-11 -10 -27.5 -23.5t-28.5 -23.5q-2 -3 -7 -3.5t-9 1.5q-19 15 -25.5 24t-15.5 23q-20 -19 -35.5 -29.5t-33.5 -15.5q-11 -3 -23 -5t-27 -2q-46 0 -77 28t-31 83q0 45 21 74t56 43
q18 10 38.5 14.5t42.5 7.5q15 2 28.5 3t25.5 1v10q0 14 -0.5 28t-8.5 25zM598 185q15 10 29 15q15 4 30 5t28 0.5t21.5 -3.5t10.5 -6q4 -4 4 -11v-3q-2 -19 -12 -48.5t-33 -48.5q-5 -5 -8.5 -3t-0.5 6q3 8 8 20.5t8.5 25.5t4.5 23.5t-2 15.5q-5 7 -22.5 7t-36.5 -2
q-8 -2 -15 -2t-12 -1q-5 0 -6 3t4 7z" />
    <glyph glyph-name="B" unicode="B" horiz-adv-x="628" 
d="M47 590q0 24 17.5 41.5t42.5 17.5q24 0 41.5 -17.5t17.5 -41.5v-297q0 -25 9.5 -47t25.5 -38t38 -25t46 -9h59q25 0 47 8t38 22t25 32.5t9 40.5t-5.5 41t-13.5 33t-19 22t-21 8h-119q-25 0 -42.5 17.5t-17.5 42.5q0 24 17.5 41.5t42.5 17.5h119q37 0 69.5 -17.5
t56.5 -47.5t38 -71t14 -87t-18.5 -86.5t-51 -71t-76 -48t-92.5 -17.5h-59q-50 0 -93 19t-75.5 51.5t-51 76t-18.5 92.5v297v0z" />
    <glyph glyph-name="C" unicode="C" horiz-adv-x="630" 
d="M454 86q-5 1 -12 2t-14 6q-128 55 -219 145t-145 220q-18 44 -1 78t62 48q15 6 31 0q9 -3 24.5 -19t30 -36t25.5 -39t11 -29q1 -15 -7.5 -24t-18.5 -17q-20 -14 -21.5 -29.5t6.5 -34.5q18 -42 49 -71.5t73 -47.5q15 -8 28.5 -5.5t24.5 17.5q18 28 39.5 28.5t47.5 -16.5
q12 -9 24 -17.5t25 -17.5q7 -6 15.5 -12.5t14.5 -14t7.5 -17.5t-3.5 -23q-5 -14 -15 -27.5t-23.5 -24t-28.5 -16.5t-30 -6zM430 391q0 -8 -2 -14t-12 -8q-6 -2 -10 3t-5 13q-4 51 -56 61q-8 2 -14 4.5t-2 12.5q4 8 8.5 9t11.5 1q14 1 28.5 -6t26 -19t19 -27t7.5 -30z
M493 376q0 -7 1 -16.5t-10 -10.5q-8 -1 -11.5 1.5t-5 6.5t-1 9t-0.5 10q-6 32 -14.5 54t-23.5 37.5t-37 25.5t-53 18q-11 2 -21 3.5t-8 14.5q3 13 13 12.5t20 -1.5q31 -4 59 -19t48.5 -37t32.5 -50t11 -58zM320 607q49 -2 93 -23.5t77.5 -56.5t52.5 -80t19 -93
q0 -11 -0.5 -21.5t-13.5 -10.5t-13 11.5t-1 22.5q-7 51 -22.5 89.5t-42 65t-64.5 43t-89 24.5q-5 0 -10 0.5t-9.5 1.5t-7 4t-1.5 8q0 9 3.5 12.5t8.5 4t10.5 -0.5t9.5 -1z" />
    <glyph glyph-name="D" unicode="D" horiz-adv-x="678" 
d="M427 308q14 -41 22.5 -82.5t13.5 -84.5q45 26 74.5 68t40.5 94q-23 5 -44.5 8t-43.5 3q-32 0 -63 -6zM196 152q68 -45 143 -45q20 0 39 2.5t38 9.5q-4 46 -13 90.5t-23 86.5q-57 -20 -103.5 -56.5t-80.5 -87.5zM411 355q20 4 40 6.5t39 2.5q23 0 46 -3.5t47 -9.5
q0 37 -11.5 71.5t-31.5 65.5q-69 -58 -146 -93q5 -10 8.5 -20t8.5 -20zM508 526q-34 32 -77.5 50t-91.5 18q-32 0 -63 -9q57 -71 97 -145q71 31 135 86zM328 422q-41 76 -101 145q-51 -27 -85.5 -74t-44.5 -106h33q50 0 99.5 8.5t98.5 26.5zM339 643q61 0 114 -23t93 -62.5
t63 -93t23 -113.5q0 -61 -23 -114.5t-63 -93t-93 -62.5t-114 -23t-114 23t-92.5 62.5t-62.5 93t-23 114.5q0 60 23 113.5t62.5 93t92.5 62.5t114 23zM364 342q-5 8 -8.5 17.5t-6.5 17.5q-54 -20 -108.5 -30t-110.5 -10q-8 0 -16.5 1t-17.5 1q1 -44 18 -83t46 -70
q37 56 89 95.5t115 60.5z" />
    <glyph glyph-name="E" unicode="E" horiz-adv-x="803" 
d="M316 271q0 34 -29 47q-7 5 -18 6t-25 1h-96v-117h94q30 0 45 8q29 13 29 55zM649 385q-22 16 -49 16q-33 0 -50 -18q-16 -19 -22 -49h142q-3 31 -21 51zM260 572q80 0 115 -47q20 -28 20 -66q0 -42 -22 -65q-5 -8 -13 -14t-19 -11q16 -7 29 -16.5t21 -23.5q18 -29 18 -65
t-20 -70q-14 -21 -32 -34q-10 -8 -22.5 -13.5t-26.5 -10.5q-14 -2 -29.5 -3.5t-33.5 -1.5h-198v441h213zM487 426q42 43 113 43q40 0 74 -14q16 -8 29.5 -19t24.5 -28q9 -15 15.5 -31t9.5 -35q2 -11 3 -26.5t1 -35.5h-231q0 -24 9 -40.5t24 -25.5q17 -13 45 -13q26 0 46 15
q11 7 17 21h84q-3 -29 -30 -57q-20 -23 -50.5 -34t-68.5 -11q-63 0 -112 37q-47 40 -47 128q0 80 44 126zM686 554v-45h-176v45h176zM289 410q18 10 18 38q0 30 -24 41q-11 3 -23 5t-29 2h-83v-97h94q15 0 26 3t21 8z" />
    <glyph glyph-name="F" unicode="F" horiz-adv-x="421" 
d="M141 446v58q0 32 11 60t30 48.5t44.5 32.5t54.5 12h94v-115h-94q-8 0 -15.5 -10.5t-7.5 -25.5v-60h117v-117h-117v-284h-117v284h-94v117h94z" />
    <glyph glyph-name="H" unicode="H" horiz-adv-x="697" 
d="M288 234q-7 4 -14 12.5t-16 17t-19 15t-23 5.5q-14 -1 -23 -9t-11.5 -20t3 -27t20.5 -30q14 -14 29.5 -24t35 -17t44.5 -9.5t58 -0.5q34 1 64 15t50.5 36t27.5 49t-5 55q-11 28 -32 44.5t-47.5 26.5t-56.5 16t-60 14q-30 7 -39 22t-2 29.5t26 25.5t44 11q24 -1 42 -11.5
t32.5 -23t26 -22t21.5 -8.5q11 1 20 9.5t12 20.5t-1.5 26.5t-21.5 28.5q-29 26 -68 38t-96 7q-22 -2 -43 -10.5t-38 -23t-28 -36t-13 -49.5q-3 -28 10.5 -49t36 -36t50.5 -24t54 -13q18 -3 38 -9t33 -15t16.5 -22t-11.5 -30q-14 -16 -33 -20.5t-37 -2.5t-33.5 8t-22.5 10z
M212 649q52 0 90 -27q11 3 22.5 3.5t22.5 0.5q57 0 107.5 -21.5t88 -59t59.5 -87.5t22 -107v-19.5t-1 -18.5q28 -42 28 -94q0 -35 -13 -65t-35 -52t-52.5 -35t-64.5 -13q-49 0 -88 25q-26 -6 -51 -6q-57 0 -107.5 22t-88 59.5t-59.5 88.5t-22 108q0 11 0.5 21.5t3.5 21.5
q-14 19 -20.5 42t-6.5 48q0 34 13 64.5t35 52.5t52 35t65 13z" />
    <glyph glyph-name="I" unicode="I" horiz-adv-x="602" 
d="M115 677q29 0 49 -20.5t20 -49.5t-20 -49t-49 -20t-48.5 20t-19.5 49t19.5 49.5t48.5 20.5zM337 497v-18q32 16 72 14t72 -18q34 -19 54.5 -55t20.5 -74v-236h-110v236q0 8 -6 19t-13 13q-17 9 -33 7t-29 -8q-15 -7 -28 -19v-248h-112v387h112zM59 110v387h112v-387h-112
z" />
    <glyph glyph-name="J" unicode="J" horiz-adv-x="921" 
d="M162 569l119 15l40 -81q3 0 7 1q77 13 141 13.5t117 -7.5t95 -22.5t74 -31.5q75 -40 120 -99l-380 -108l-88 178q32 5 62 4t57 -6l36 -68l129 34q-46 30 -101 48q-47 16 -109.5 22t-132.5 -14l104 -211l-380 -110q-28 69 -24 134q1 28 9 57t26.5 57t49.5 53t78 45z
M245 402q-41 -26 -57 -52.5t-19 -48.5q-4 -26 6 -49l126 35z" />
    <glyph glyph-name="K" unicode="K" horiz-adv-x="799" 
d="M175 662v-182q46 26 103.5 40t121.5 14q73 0 137 -19t112 -51.5t76 -76t28 -92.5q0 -50 -28 -94t-76 -76.5t-112 -51.5t-137 -19q-72 0 -135 18.5t-111 50t-76.5 74t-30.5 91.5v374h128zM400 399q30 0 57 -8t47.5 -22t32 -33t11.5 -41t-11.5 -41.5t-32 -33.5t-47.5 -22.5
t-57 -8.5q-31 0 -58 8.5t-47 22.5t-31.5 33.5t-11.5 41.5t11.5 41t31.5 33t47 22t58 8zM400 135q46 0 87 12.5t72 34t48.5 50.5t17.5 63q0 33 -17.5 62t-48.5 51t-72 34.5t-87 12.5q-47 0 -87.5 -12.5t-71.5 -34.5t-48.5 -51t-17.5 -62q0 -34 17.5 -63t48.5 -50.5t71.5 -34
t87.5 -12.5z" />
    <glyph glyph-name="L" unicode="L" horiz-adv-x="768" 
d="M708 533q-24 -35 -60 -63v-14q0 -60 -22.5 -121.5t-66 -111t-107 -80.5t-146.5 -31q-51 0 -97.5 14.5t-87.5 40.5q7 -1 14 -1h15q86 0 149 51q-40 1 -70.5 24.5t-41.5 59.5q12 -3 22 -3q9 0 16.5 1t15.5 3q-42 9 -69.5 41.5t-27.5 76.5v1q12 -6 25.5 -10t30.5 -4
q-26 16 -40 42t-14 58t16 61q45 -56 109 -89.5t139 -36.5q-3 12 -3 26q0 25 9.5 47.5t26 39t38 26t46.5 9.5q27 0 49 -10.5t39 -27.5q20 3 40 11t37 17q-16 -42 -53 -66q19 2 36 7t33 12z" />
    <glyph glyph-name="M" unicode="M" horiz-adv-x="615" 
d="M308 49v136h-157v103h-104v119q0 29 19 48.5t48 19.5q23 0 40 -14.5t23 -37.5q14 17 33 26.5t42 9.5q34 0 60 -20.5t34 -51.5q36 36 92 36q27 0 51 -10t41.5 -28t28 -41.5t10.5 -50.5v-244h-261zM110 614q23 0 39.5 -16.5t16.5 -39.5q0 -24 -16.5 -41t-39.5 -17t-39.5 17
t-16.5 41q0 23 16.5 39.5t39.5 16.5zM252 632q30 0 52 -22t22 -52q0 -31 -22 -52.5t-52 -21.5q-31 0 -52.5 21.5t-21.5 52.5q0 30 21.5 52t52.5 22zM438 653q20 0 37.5 -7.5t30 -20.5t20 -30.5t7.5 -36.5q0 -41 -27 -69t-68 -28q-40 0 -68 28t-28 69q0 19 7.5 36.5
t20.5 30.5t30.5 20.5t37.5 7.5z" />
    <glyph glyph-name="N" unicode="N" horiz-adv-x="794" 
d="M200 504q32 0 60 -12t48.5 -32.5t32.5 -48.5t12 -60t-12 -60t-32.5 -48.5t-48.5 -32.5t-60 -12t-59.5 12t-48.5 32.5t-33 48.5t-12 60t12 60t33 48.5t48.5 32.5t59.5 12zM595 504q31 0 59 -12t49 -32.5t33 -48.5t12 -60t-12 -60t-33 -48.5t-49 -32.5t-59 -12t-58.5 12
t-48.5 32.5t-33 48.5t-12 60t12 60t33 48.5t48.5 32.5t58.5 12z" />
    <glyph glyph-name="O" unicode="O" horiz-adv-x="630" 
d="M512 613q28 0 47.5 -19.5t19.5 -47.5v-390q0 -29 -19.5 -48.5t-47.5 -19.5h-390q-29 0 -48.5 19.5t-19.5 48.5v390q0 28 19.5 47.5t48.5 19.5h390zM436 556q-8 0 -15.5 -7.5t-7.5 -16.5v-58q0 -8 7.5 -15.5t15.5 -7.5h60q10 0 17 7.5t7 15.5v58q0 9 -7 16.5t-17 7.5h-60z
M520 391h-47q5 -11 6 -21.5t1 -23.5q0 -33 -12.5 -62t-34.5 -50t-52 -33.5t-64 -12.5t-63.5 12.5t-51.5 33.5t-35 50t-13 62q0 26 8 45h-50v-221q0 -9 6.5 -15t15.5 -6h365q8 0 14.5 6t6.5 15v221zM317 454q-44 0 -74.5 -29.5t-30.5 -73.5q0 -21 8 -39t22.5 -32t33.5 -22
t41 -8t41.5 8t33.5 22t22.5 32t8.5 39q0 22 -8.5 40.5t-22.5 32.5t-33.5 22t-41.5 8z" />
    <glyph glyph-name="P" unicode="P" horiz-adv-x="798" 
d="M581 214q-18 -16 -45.5 -28t-57.5 -16.5t-59.5 0t-51.5 21.5q-3 2 -5.5 6.5t-5 8t-5.5 5.5t-7 -1q-6 -27 -13.5 -55.5t-16 -56t-18.5 -52.5t-22 -46h-48h2q-3 10 -3.5 25.5t0 31.5t2 31t3.5 26q4 26 13.5 56.5t18.5 61.5t16 61.5t7 56.5q0 12 -2.5 23.5t-5 23.5t-4 24.5
t0.5 25.5q3 24 19.5 45t37 30.5t40.5 5t32 -31.5q9 -21 7 -43t-8.5 -44t-15 -43.5t-13 -41.5t-2.5 -38t18 -32q9 -9 29.5 -13.5t40.5 -1.5q32 6 54.5 31t36 59.5t17 74.5t-2.5 77.5t-22.5 68.5t-42.5 46q-38 23 -76.5 27.5t-73.5 -5t-65.5 -31t-52 -50.5t-32.5 -63.5
t-7 -70.5q2 -21 12 -37.5t17 -32t6 -31t-19 -33.5q-53 21 -75 60t-22 101q1 64 29 115.5t74.5 86t107 50t126.5 7.5q43 -5 81 -23.5t68 -46.5t49 -63.5t24 -74.5q3 -35 -0.5 -73t-15 -74t-30 -67.5t-43.5 -52.5z" />
    <glyph glyph-name="Q" unicode="Q" horiz-adv-x="666" 
d="M619 382q-3 -75 -40 -136.5t-97 -99.5q15 -20 28.5 -30t24.5 -14q12 -4 23 -3v-48q-21 -11 -42 -13q-18 -2 -40 4t-41 29q-9 11 -16 20.5t-14 20.5q-38 -13 -81 -13q-59 0 -110 22t-88.5 60.5t-58.5 90t-19 110.5q2 58 26.5 109.5t64.5 90t92.5 61t111.5 22.5t110 -22.5
t88.5 -61t58.5 -90t19 -109.5zM345 594q-30 0 -57.5 -16.5t-48.5 -44.5t-34 -65.5t-15 -80.5q-1 -43 9.5 -81t29.5 -66t45.5 -44.5t56.5 -16.5q9 0 17.5 1t18.5 6q-3 5 -6.5 11.5t-6.5 11.5q-8 11 -17 15.5t-17 5.5q-9 1 -18 -1v49q22 8 45 7q20 -1 42.5 -12t42.5 -40
q23 28 37.5 68t16.5 86q1 43 -9 80.5t-29 65.5t-45.5 44.5t-57.5 16.5z" />
    <glyph glyph-name="R" unicode="R" horiz-adv-x="704" 
d="M128 210q34 0 57.5 -23.5t23.5 -57.5t-23.5 -57.5t-57.5 -23.5t-57.5 23.5t-23.5 57.5t23.5 57.5t57.5 23.5zM47 452q83 0 156.5 -32t128.5 -87t87 -128.5t32 -156.5h-119q0 57 -21 109t-62 93t-93 63t-109 22v117zM47 659q126 0 237.5 -48t194.5 -131t131 -194.5
t48 -237.5h-117q0 102 -39 192t-106 157t-157 106t-192 39v117z" />
    <glyph glyph-name="S" unicode="S" horiz-adv-x="567" 
d="M324 610q40 0 75 -15t61 -41t41 -61t15 -75t-15 -75t-41 -61t-61 -41t-75 -15q-41 0 -74 17l-129 -131q-17 -15 -36 -15t-34 15q-14 14 -14 34.5t14 35.5l120 121q-18 24 -28 53.5t-10 61.5q0 40 15 75t41 61t60.5 41t74.5 15zM324 302q24 0 45.5 9t37.5 24.5t25 37
t9 45.5t-9 45.5t-25 37t-37.5 25t-45.5 9.5t-45.5 -9.5t-37 -25t-24.5 -37t-9 -45.5t9 -45.5t24.5 -37t37 -24.5t45.5 -9z" />
    <glyph glyph-name="T" unicode="T" horiz-adv-x="534" 
d="M47 558q0 29 20 48.5t48 19.5q30 0 49.5 -19.5t19.5 -48.5v-68h236q28 0 48 -20.5t20 -50.5q0 -28 -20 -48t-48 -20h-236v-38q0 -20 7 -38.5t19 -32.5t27.5 -22t32.5 -8h151q29 0 48 -19t19 -49q0 -29 -20 -48.5t-48 -19.5h-153q-45 0 -85 18.5t-70 51t-47.5 75.5
t-17.5 92v245v0z" />
    <glyph glyph-name="U" unicode="U" horiz-adv-x="682" 
d="M447 212q15 0 25.5 11t10.5 25q0 15 -10.5 25.5t-25.5 10.5h-211q-15 0 -25.5 -10.5t-10.5 -25.5q0 -14 10.5 -25t25.5 -11h211zM47 464q0 39 14.5 73t40 59.5t59 40.5t72.5 15h131q18 -2 39.5 -10.5t41.5 -22t37 -31.5t26 -39q3 -5 5 -9.5t4 -10.5t4 -16t5 -27t4.5 -30
t9.5 -20q6 -6 18 -7.5t24.5 -2t23.5 -0.5t15 -3l9 -7l6 -11v-7v-151q0 -39 -15 -73t-40.5 -59.5t-59.5 -40.5t-72 -15h-216q-39 0 -72.5 15t-59 40.5t-40 59.5t-14.5 73v217zM339 427q15 0 25.5 10.5t10.5 25.5q0 14 -10.5 25t-25.5 11h-103q-15 0 -25.5 -11t-10.5 -25
q0 -15 10.5 -25.5t25.5 -10.5h103z" />
    <glyph glyph-name="V" unicode="V" horiz-adv-x="788" 
d="M255 652q24 5 40.5 -4.5t28 -28t18.5 -44.5t12 -54t9 -56t9 -51q18 -66 30.5 -102t27.5 -36t40.5 33.5t56.5 90.5q15 28 15.5 53.5t-11 40.5t-33.5 17t-52 -16q8 48 35 83t63 55t74.5 24.5t68 -9.5t45.5 -47.5t6 -87.5q-9 -55 -32 -106.5t-53.5 -97.5t-65 -86t-67 -71
t-60 -53t-43.5 -32q-24 -16 -46.5 -15t-42 12.5t-34 29t-22.5 34.5q-6 13 -16 42.5t-22 66.5t-24 77.5t-23 75t-20 59t-14 30.5q-8 9 -21 6.5t-26 -9.5q-15 -8 -31 -20l-28 38q34 39 70 72q31 28 67.5 53.5t70.5 32.5z" />
    <glyph glyph-name="W" unicode="W" horiz-adv-x="704" 
d="M220 74q-38 18 -70 46.5t-55 63.5t-35.5 77t-12.5 87q0 34 7.5 64.5t19.5 59.5zM352 652q60 0 113 -21t94 -58h-6q-22 0 -36 -17t-14 -37q0 -19 9 -36t21 -36q8 -15 17 -34.5t9 -48.5q0 -20 -6.5 -44.5t-17.5 -54.5l-30 -101l-110 326q7 1 13 1.5t11 1.5t10 1q6 1 8.5 5
t2.5 8.5t-3.5 8t-9.5 3.5l-28 -2q-12 -1 -26.5 -1.5t-26.5 -0.5q-11 0 -25.5 0.5t-26.5 1.5q-15 1 -29 2q-6 0 -9.5 -3.5t-3.5 -8t2.5 -8.5t8.5 -5q5 0 10 -1t11 -1.5t12 -1.5l47 -129l-67 -200l-110 329q7 1 13 1.5t11 1.5t10 1q6 1 9 5t3 8.5t-3.5 8t-9.5 3.5
q-15 -1 -29 -2q-12 -1 -26 -1.5t-26 -0.5h-20q41 63 107 100t147 37zM620 494q17 -32 27.5 -68.5t10.5 -77.5q0 -85 -42 -154.5t-111 -108.5l93 268q14 33 19 60t5 50v16t-2 15zM352 44q-22 0 -43.5 2.5t-41.5 9.5l90 265l94 -256q1 -1 1 -2t2 -1q-24 -10 -49.5 -14
t-52.5 -4z" />
    <glyph glyph-name="X" unicode="X" horiz-adv-x="692" 
d="M648 379q0 -27 -19 -46q10 -34 -16 -63q10 -35 -17 -62q5 -16 1 -31.5t-14.5 -28t-27 -20.5t-35.5 -8h-205q-19 0 -30.5 9t-17.5 9q0 -23 -21 -32q-5 -2 -25.5 -3t-45.5 -1t-47.5 0.5t-30.5 0.5q-12 0 -21.5 9t-11.5 22l-18 228q-1 15 9 25.5t25 10.5h155l21 -8l6 4t5 4
q4 4 14.5 19.5t22 34t22 35.5t13.5 25l-2 68q0 17 13.5 27.5t31 13.5t34.5 -2t25 -19q8 -15 14 -32q5 -14 9.5 -31t5.5 -34l-9 -68h127q27 0 43.5 -15t16.5 -41zM206 139q12 0 17.5 7.5t5.5 16.5t-5.5 16.5t-17.5 7.5t-17.5 -7.5t-5.5 -16.5t5.5 -16.5t17.5 -7.5zM404 577
q-3 2 -11.5 3t-13.5 -1l2 -64q0 -9 -4.5 -20t-10.5 -22t-12.5 -21.5t-10.5 -18.5q-11 -15 -21.5 -31t-21.5 -30q-8 -8 -16 -14t-17 -13v-165q5 0 8.5 -0.5t8.5 -2.5q7 -3 13 -7.5t14 -7.5h209q16 0 26 10q10 7 10 19q0 8 -6.5 11t-12.5 3v20q19 0 31 14q4 8 4 13
q2 11 -4.5 12.5t-14.5 2.5v21l24 7l5 4q10 11 7.5 21t-19.5 10v20q10 0 18 4.5t13 10.5t6 12.5t-4 10.5q-5 3 -7 3q-3 2 -8 2h-167l-10 12l17 91q2 12 0 20t-7 21q-4 11 -8 20t-9 20z" />
    <glyph glyph-name="Y" unicode="Y" horiz-adv-x="616" 
d="M369 95q3 -4 9 -7q2 0 4 -1t5 -1q4 0 6 1.5t5 3.5q1 2 1 13v97q0 11 -3 15q-3 5 -11 5q-3 0 -4.5 -1t-4.5 -1q-2 -2 -3.5 -2.5t-3.5 -2.5v-119zM502 216q-3 -3 -3.5 -8t-0.5 -10v-18h33v18q0 10 -4 18q-2 1 -5 2t-7 1q-5 0 -8 -1t-5 -2zM313 397q7 0 13 6q5 5 5 12v114
q0 8 -5 11q-7 5 -13 5q-10 0 -13 -5q-5 -3 -5 -11v-114q0 -6 4 -12t14 -6zM178 315v-36h-45v-220h-41v220h-45v36h131zM167 536h2l31 113h48l-56 -165v-117h-48v111l-56 171h47zM252 527q0 24 16 40q10 7 21 10.5t26 3.5q27 0 43 -16q8 -7 12 -17t4 -21v-108q0 -28 -16 -41
q-17 -17 -45 -17t-45 17q-16 15 -16 41v108zM403 250q16 0 27 -11q4 -7 6.5 -15.5t2.5 -20.5v-104q0 -11 -2.5 -18.5t-6.5 -12.5q-8 -11 -25 -11q-10 0 -20 4q-4 2 -8 5t-8 7v-14h-38v256h38v-81q4 4 8 7t8 5q4 3 8.5 3.5t9.5 0.5zM452 576v-161q0 -9 1 -10q4 -4 9 -4t13 5
q7 3 13 11v159h43v-209h-43v23q-6 -7 -12.5 -11t-13.5 -9q-5 -2 -11.5 -4.5t-11.5 -2.5q-15 0 -23 11q-3 4 -5.5 10.5t-2.5 16.5v175h44zM570 149h-72v-36q0 -16 4 -20q3 -5 13 -5q4 0 7 1t5 2q3 3 3.5 8.5t0.5 13.5v9h39v-9q0 -28 -14 -45q-14 -14 -43 -14q-24 0 -40 16
q-14 17 -14 43v85q0 23 16 39t41 16q26 0 40 -14q7 -8 10.5 -17.5t3.5 -23.5v-49zM264 59v22q-11 -14 -21 -18q-11 -6 -22 -6q-14 0 -20 7q-7 11 -7 26v158h38v-144q0 -4 1 -6.5t1 -4.5q2 -2 9 -2q2 0 4 0.5t7 3.5q6 4 10 9v144h38v-189h-38z" />
    <glyph glyph-name="Z" unicode="Z" horiz-adv-x="560" 
d="M197 256q2 3 3.5 12t3.5 28q5 66 24.5 105t60.5 60q9 -5 20 -9.5t23 -6.5v-5q0 -5 0.5 -10.5t2.5 -9.5l4 -9l9 -4q20 -7 39.5 -8t37 1t32.5 6.5t26 9.5l25 -55q-30 -16 -52 -23.5t-40 -9.5t-33.5 -0.5t-30.5 4.5h-13q-10 0 -14.5 -6t-7.5 -14q-1 -9 5 -15q3 -3 6 -5
q1 -1 20.5 -10.5t47 -31t59.5 -57t59 -88.5l-63 -38q-6 12 -18 28.5t-31 34t-45.5 35.5t-62.5 34q-3 1 -4.5 2t-4.5 1q-9 0 -14 -7l-11 -13q-13 -17 -27.5 -35t-35.5 -35t-50 -32t-69 -25l-31 79q15 4 35 12t41 22.5t40.5 36t33.5 51.5zM281 650q34 0 57.5 -23.5t23.5 -57.5
t-23.5 -57.5t-57.5 -23.5t-57.5 23.5t-23.5 57.5t23.5 57.5t57.5 23.5z" />
    <glyph glyph-name="d" unicode="d" 
d="M447 327q18 3 35 3q23 0 49 -6q-6 -29 -22.5 -52.5t-41.5 -37.5q-3 24 -7.5 47t-12.5 46zM319 240q39 59 102 80q16 -48 20 -98q-20 -7 -43 -7q-42 0 -79 25zM438 353q-2 5 -4.5 11t-4.5 11q43 20 81 52q11 -17 17.5 -36.5t6.5 -39.5q-14 3 -26.5 5t-25.5 2q-19 0 -44 -5
zM492 448q-35 -30 -75 -48q-23 42 -54 81q9 2 17.5 3.5t17.5 1.5q27 0 51 -10t43 -28zM392 390q-53 -19 -110 -19h-18q5 32 24 58.5t48 41.5q34 -41 56 -81zM398 513q-34 0 -63.5 -13t-51.5 -35t-34.5 -51.5t-12.5 -62.5q0 -34 12.5 -63.5t34.5 -51.5t51.5 -35t63.5 -13
t63.5 13t51.5 35t35 51.5t13 63.5q0 33 -13 62.5t-35 51.5t-51.5 35t-63.5 13zM398 -1q-73 0 -137 27.5t-111.5 75.5t-75 112t-27.5 137t27.5 137t75 111.5t111.5 75t137 27.5t137 -27.5t112 -75t75.5 -111.5t27.5 -137t-27.5 -137t-75.5 -112t-112 -75.5t-137 -27.5z
M412 346q-35 -12 -64 -34t-49 -53q-34 36 -36 85q5 0 9.5 -0.5t9.5 -0.5q31 0 61.5 5.5t60.5 16.5q3 -9 8 -19z" />
    <glyph glyph-name="a" unicode="a" 
d="M218 266q-4 2 -5.5 -0.5t1.5 -4.5q37 -34 84 -52.5t101 -18.5q33 0 69.5 9t65.5 27q5 2 8.5 5t7.5 6q5 3 2 7t-8 2q-2 -1 -5 -2t-5 -2q-32 -13 -65.5 -19t-65.5 -6q-51 0 -98.5 13t-86.5 36zM433 402q0 -12 -0.5 -22t-7.5 -20q-7 -14 -22 -19h-5q-12 0 -18.5 8t-6.5 21
q0 17 8.5 25.5t21.5 12.5q7 2 14.5 2h15.5v-8zM428 477q5 -6 5 -13.5v-15.5v-6q-7 0 -14.5 -0.5t-15.5 -1.5q-12 -2 -23.5 -4.5t-21.5 -7.5q-20 -8 -31.5 -24t-11.5 -41q0 -31 17 -46.5t43 -15.5q8 0 15 1t13 3q19 6 38 25q5 -8 8.5 -13t14.5 -13q6 -2 9 1q7 5 16 13t15 13
q5 5 1 10q-6 8 -11 15.5t-5 21.5v63q0 20 -1.5 37.5t-15.5 31.5q-12 11 -29 15.5t-32 4.5h-8q-13 -1 -26 -4.5t-24.5 -10.5t-19.5 -18.5t-11 -27.5q-2 -7 5 -9l39 -4q5 0 7 7q3 12 11 17.5t19 7.5h3q14 0 22 -11zM518 263q-3 -2 -2.5 -4t3.5 -2q3 1 6.5 1t8.5 1q11 1 20.5 1
t12.5 -4q2 -3 1 -9t-3 -13t-4.5 -14t-4.5 -11q-2 -2 0.5 -3t4.5 1q13 11 18.5 27t6.5 27v2q0 4 -2 6q-2 4 -17.5 5.5t-32.5 -3.5q-5 -2 -8.5 -4t-7.5 -4zM399 -1q-73 0 -137 27.5t-112 75.5t-75.5 112t-27.5 137t27.5 137t75.5 111.5t112 75t137 27.5t137 -27.5t111.5 -75
t75 -111.5t27.5 -137t-27.5 -137t-75 -112t-111.5 -75.5t-137 -27.5z" />
    <glyph glyph-name="colon" unicode=":" 
 />
    <glyph glyph-name="b" unicode="b" 
d="M258 319q0 -27 10.5 -51.5t28.5 -42.5t42 -28.5t51 -10.5h33q27 0 51 10t42 26.5t28.5 39t10.5 48.5t-7.5 48.5t-21 39.5t-31.5 26.5t-39 9.5h-66q-14 0 -23.5 -9.5t-9.5 -23.5t9.5 -23.5t23.5 -9.5h66q12 0 22.5 -16.5t10.5 -41.5q0 -24 -19 -40.5t-47 -16.5h-33
q-27 0 -46.5 19t-19.5 47v165q0 14 -9.5 23.5t-23.5 9.5t-23.5 -9.5t-9.5 -23.5v-165zM402 703q72 -1 135.5 -29t110.5 -75.5t74.5 -111t27.5 -135.5q0 -73 -27.5 -137t-75.5 -112t-112 -75.5t-137 -27.5t-137 27.5t-111.5 75.5t-75 112t-27.5 137q0 72 27 135.5t74.5 111
t111 75.5t135.5 29h7z" />
    <glyph glyph-name="c" unicode="c" horiz-adv-x="799" 
d="M398 702q72 1 135.5 -26.5t111.5 -75t76 -112t29 -137.5q0 -73 -27.5 -137t-75.5 -112t-112 -75.5t-137 -27.5t-137 27.5t-111.5 75.5t-75 112t-27.5 137t27.5 136.5t75 111t111.5 75t137 28.5zM493 153q22 0 43 17t28 37q4 10 2.5 17t-5.5 12.5t-10 10t-12 9.5
q-9 7 -18 13t-18 13q-18 12 -33.5 11.5t-29.5 -20.5q-8 -11 -18 -12.5t-21 3.5q-30 14 -52.5 35t-36.5 52q-6 14 -4.5 25.5t15.5 21.5q8 5 14 12t5 18q0 7 -8 21t-18.5 28.5t-21.5 26t-18 14.5q-12 5 -23 0q-33 -11 -45.5 -35.5t0.5 -56.5q39 -95 105.5 -161t160.5 -106
q5 -3 10.5 -4t8.5 -2zM476 376q0 11 -5.5 22t-14 19.5t-19 13.5t-20.5 5q-5 0 -9 -1t-6 -6q-3 -8 1.5 -10t10.5 -3q37 -7 40 -44q1 -6 4 -10t8 -2q7 1 8.5 5.5t1.5 10.5zM522 365q0 22 -8.5 42.5t-23.5 36.5t-35 27t-43 14q-8 1 -15.5 1.5t-9.5 -9.5t5.5 -11t15.5 -3
q46 -11 66 -31.5t28 -66.5q1 -7 1 -14.5t12 -5.5q8 1 7.5 8t-0.5 12zM395 534q-6 -1 -14 0.5t-9 -11.5q-1 -8 6.5 -9t13.5 -2q75 -11 112 -49t47 -113q1 -8 1 -16t10 -8t10 7.5v15.5q0 35 -14 68t-38 58.5t-56.5 41.5t-68.5 17z" />
    <glyph glyph-name="Odieresis" unicode="&#xd6;" horiz-adv-x="699" 
d="M440 660q30 0 60.5 -11.5t52.5 -34.5t32 -58.5t0 -84.5q-9 -42 -30 -76t-50.5 -57.5t-66.5 -36t-78 -12.5h-113l-40 -183h-160l121 554h272zM348 395q29 2 54.5 23.5t33.5 52.5q0 5 2 7q2 8 1 16t-3 15q-5 16 -19.5 27t-34.5 11h-79l-34 -152h75h4zM648 403
q-9 -43 -30.5 -76.5t-51 -57t-66.5 -36t-77 -12.5h-115l-38 -182h-160l7 29h134l39 183h114q41 0 78 12.5t66.5 36t50.5 57.5t30 76q7 32 4.5 58.5t-12.5 47.5q20 -23 28.5 -56.5t-1.5 -79.5z" />
    <glyph glyph-name="odieresis" unicode="&#xf6;" 
d="M230 214h89l22 102h63q46 0 80 26.5t45 74.5q6 27 0 47t-18 32.5t-29 19t-34 6.5h-151zM353 375l19 84h44q11 0 19 -6t11 -15q2 -10 1 -17q-1 -1 -1 -4q-5 -17 -18.5 -29t-30.5 -13h-2h-42zM564 379q5 26 0.5 44.5t-15.5 31.5q11 -25 4 -59q-10 -48 -44.5 -74.5
t-80.5 -26.5h-63l-22 -102h-74l-4 -16h89l21 101h64q45 0 79.5 26.5t45.5 74.5zM398 -2q-73 0 -137 27.5t-111.5 75t-75 111.5t-27.5 137t27.5 137t75 111.5t111.5 75t137 27.5t137 -27.5t112 -75t75.5 -111.5t27.5 -137t-27.5 -137t-75.5 -111.5t-112 -75t-137 -27.5z" />
    <glyph glyph-name="eacute" unicode="&#xe9;" 
d="M397 701q72 1 135.5 -26.5t111 -75t75.5 -112t29 -137.5t-26.5 -137t-75.5 -111.5t-112 -75t-137 -27.5t-137 27.5t-111.5 75t-75 111.5t-27.5 137t27.5 136.5t75 111t111.5 75t137 28.5zM194 509q-7 0 -12 -5q-6 -6 -6 -13v-282q0 -9 6 -13q5 -5 12 -5h406q7 0 12 5
t5 13v282q0 6 -5 13q-5 5 -12 5h-406zM210 242v207l117 -102zM396 329l-157 139h315zM243 225l110 100l32 -30l22 -1l34 31l109 -100h-307zM584 242l-117 105l117 102v-207z" />
    <glyph glyph-name="Eacute" unicode="&#xc9;" horiz-adv-x="716" 
d="M640 571q9 0 16 -7q8 -8 8 -18v-392q0 -13 -8 -18q-7 -7 -16 -7h-565q-9 0 -16 7q-5 2 -7 7.5t-2 10.5v392q0 10 9 18q7 7 16 7h565zM260 346l-162 141v-287zM576 514h-438l218 -193zM418 315l-46 -43l-32 1l-43 42l-153 -138h426zM454 346l163 -146v287z" />
  </font>
</defs>
</svg>
